<svg id="myIcon_frame" version="1.1" xmlns="http://www.w3.org/2000/svg" xmlns:xlink="http://www.w3.org/1999/xlink" x="0px" y="0px"
	 viewBox="0 0 1024 1024" style="enable-background:new 0 0 1024 1024;" xml:space="preserve">
<g id="frame" inkscape:version="0.48.2 r9819" sodipodi:docname="AppIconTemplate.svg" xmlns:dc="http://purl.org/dc/elements/1.1/" xmlns:sodipodi="http://sodipodi.sourceforge.net/DTD/sodipodi-0.dtd" xmlns:svg="http://www.w3.org/2000/svg" xmlns:inkscape="http://www.inkscape.org/namespaces/inkscape" xmlns:rdf="http://www.w3.org/1999/02/22-rdf-syntax-ns#" xmlns:cc="http://creativecommons.org/ns#">
	<defs>
		
		
			<inkscape:perspective  inkscape:persp3d-origin="512 : 341.33333 : 1" inkscape:vp_x="0 : 512 : 1" inkscape:vp_y="0 : 1000 : 0" inkscape:vp_z="1024 : 512 : 1" sodipodi:type="inkscape:persp3d" id="perspective4094">
			</inkscape:perspective>
	</defs>
	
		<sodipodi:namedview  inkscape:window-width="1920" inkscape:pageshadow="2" fit-margin-right="0" inkscape:window-x="36" inkscape:document-units="px" inkscape:window-y="0" inkscape:window-maximized="0" inkscape:guide-bbox="true" inkscape:window-height="1036" inkscape:current-layer="layer2" fit-margin-bottom="0" inkscape:pageopacity="0.0" inkscape:showpageshadow="false" inkscape:cx="1052.2646" inkscape:cy="508.89593" pagecolor="#ffffff" bordercolor="#666666" borderopacity="1.0" inkscape:zoom="0.64" borderlayer="true" showborder="false" showgrid="false" showguides="true" fit-margin-left="0" fit-margin-top="0" id="base">
		<sodipodi:guide  orientation="0,1" position="-10.429825,956.71547" id="guide3101"></sodipodi:guide>
		<sodipodi:guide  orientation="1,0" position="956.5625,59.8125" id="guide3103"></sodipodi:guide>
		<sodipodi:guide  orientation="0,1" position="1246.875,315.625" id="guide3105"></sodipodi:guide>
		<sodipodi:guide  orientation="1,0" position="67.351921,64.523494" id="guide3107"></sodipodi:guide>
		<sodipodi:guide  orientation="0,1" position="961.5,67.5" id="guide3109"></sodipodi:guide>
		<sodipodi:guide  orientation="1,0" position="319.08193,67.707547" id="guide3111"></sodipodi:guide>
		<sodipodi:guide  orientation="1,0" position="511.68014,67.707547" id="guide3113"></sodipodi:guide>
		<sodipodi:guide  orientation="1,0" position="706.1875,64.734375" id="guide3115"></sodipodi:guide>
		<sodipodi:guide  orientation="0,1" position="-21.213203,1024" id="guide3117"></sodipodi:guide>
		<sodipodi:guide  orientation="0,1" position="0,0" id="guide3119"></sodipodi:guide>
		<sodipodi:guide  orientation="1,0" position="0,1042.6289" id="guide3121"></sodipodi:guide>
		<sodipodi:guide  orientation="0,1" position="-6.8942911,705" id="guide3123"></sodipodi:guide>
		<sodipodi:guide  orientation="1,0" position="1024,1037.75" id="guide3125"></sodipodi:guide>
		<sodipodi:guide  orientation="0,1" position="-27.223611,512.65241" id="guide3127"></sodipodi:guide>
		<inkscape:grid  type="xygrid" snapvisiblegridlinesonly="true" enabled="true" visible="true" empspacing="5" id="grid4235">
			</inkscape:grid>
		<sodipodi:guide  orientation="1,0" position="511.68014,430.8932" id="guide4003"></sodipodi:guide>
	</sodipodi:namedview>
	
		<g id="layer1" transform="translate(50.25,211.52169)" sodipodi:insensitive="true" inkscape:groupmode="layer" inkscape:label="BORDER">
		<path id="path5" inkscape:connector-curvature="0" style="fill:none;stroke:#000000;" d="M302-211.5h319.6
			c101.4,0,152.1,0,206.7,17.3c59.6,21.7,106.5,68.6,128.2,128.2c17.3,54.6,17.3,105.3,17.3,206.7v319.6c0,101.4,0,152.1-17.3,206.7
			c-21.7,59.6-68.6,106.5-128.2,128.2c-54.6,17.3-105.3,17.3-206.7,17.3H302c-101.4,0-152.1,0-206.7-17.3
			C35.6,773.5-11.3,726.6-33,667c-17.3-54.6-17.3-105.3-17.3-206.7V140.7c0-101.4,0-152.1,17.3-206.7
			c21.7-59.6,68.6-106.5,128.2-128.2C149.8-211.5,200.5-211.5,302-211.5L302-211.5"/>
	</g>
	<g id="layer6" inkscape:groupmode="layer" inkscape:label="MASK">
		<path id="path4146" sodipodi:nodetypes="csssssssssssccc" inkscape:connector-curvature="0" style="fill:#FFFFFF;" d="M0,708.4
			c0.1,38.8,0.6,71,3.5,100.2c0.9,8.9,2,17.5,3.4,25.9c2.7,17.1,6.3,30.6,10.6,44.6c1,3.1,2.3,6,3.5,8.9c5,11.9,10.4,22.6,16.8,32.2
			c7.5,11.4,16.6,23.4,26.7,33.8c11.3,11.6,22.2,20.6,34.2,28.8c7.8,5.3,15.2,9.8,23.7,13.9c3.3,1.6,6.8,3.3,10.5,4.9
			c6,2.6,12.6,5.2,20.4,7.4c16.3,4.6,37.8,9.5,66.7,11.8c26,2.1,58.1,3.2,99.2,3.2H0L0,708.4z"/>
		<path id="path4146-5" sodipodi:nodetypes="cssssssssccc" inkscape:connector-curvature="0" style="fill:#FFFFFF;" d="M1024,708.4
			c0,33.5-0.4,57.5-2.2,86.1c-2.1,33.6-7.7,62-16.1,85.8c-5.2,14.5-11.4,27.3-18.6,38.6c-10.4,16.2-22.7,31.2-36.9,44.5
			c-6.9,6.4-14,11.8-21.9,17.5c-10.4,7.4-20.2,13.1-32.2,18.6c-10.7,5-23.2,9.5-39.9,13.5c-11.6,2.7-25.2,5.3-41.7,7.1
			c-27.2,2.9-62.2,3.4-108.3,4H1024V708.4z"/>
		<path id="path4146-5-3" sodipodi:nodetypes="cssssssssssccc" inkscape:connector-curvature="0" style="fill:#FFFFFF;" d="
			M1024,318.3c0.2-39.1-0.3-73.6-3.5-103.9c-1.4-13.5-3.9-26.3-6-38.2c-3.6-20.5-10.1-38.4-17.3-52.7c-2.1-4.2-3.9-7.6-5.8-10.8
			c-1.5-2.6-3.1-5.2-4.9-8.1c-2-3.1-3.9-6.2-6-9.2c-5.7-8-12.2-15.9-18.9-23.2c-10.1-10.8-21.3-21-33.9-29.4
			c-18-12-33.3-21.3-61.7-29.1c-12.9-3.5-28.7-6.9-48.7-9.2C790.1,1.2,754.7,0.1,706.2,0H1024L1024,318.3z"/>
		<path id="path4146-5-3-7" sodipodi:nodetypes="csssssccc" inkscape:connector-curvature="0" style="fill:#FFFFFF;" d="M0,318.5
			c0-54.3,2-103.1,8.8-140c6-32.2,15.8-54.5,29.1-75.1C53.3,79.4,73,58.2,97.3,42c14.6-9.7,27.2-16.7,46.1-24
			c9.9-3.8,21.4-6.6,34.7-9.2c30.2-5.9,72.6-9.2,141-8.9H0V318.5z"/>
	</g>
	<g id="layer2" transform="translate(0,-2.2054443)" inkscape:groupmode="layer" inkscape:label="GUIDES">
		<path id="path4024" inkscape:connector-curvature="0" style="fill:none;stroke:#000000;stroke-width:2;" d="M1,321v386.3"/>
		
			<path id="path3129" sodipodi:cy="298.86218" sodipodi:cx="462.32144" sodipodi:rx="138" sodipodi:ry="138" sodipodi:type="arc" style="fill:none;stroke:#000000;stroke-width:1.0057;" d="
			M786,513.7c0,151.6-122.9,274.4-274.5,274.4S237.1,665.2,237.1,513.7S360,239.3,511.6,239.3S786,362.1,786,513.7z"/>
		
			<path id="path3129-9" sodipodi:cy="298.86218" sodipodi:cx="462.32144" sodipodi:rx="138" sodipodi:ry="138" sodipodi:type="arc" style="fill:none;stroke:#000000;stroke-width:0.6209;" d="
			M956.6,514.1c0,245.5-199,444.5-444.6,444.5S67.4,759.6,67.4,514.1S266.5,69.6,512,69.6S956.6,268.6,956.6,514.1z"/>
		
			<path id="path4011" sodipodi:nodetypes="cc" inkscape:connector-curvature="0" style="fill:none;stroke:#000000;stroke-width:2;" d="
			M67.4,69.5l889.2,889.2"/>
		<path id="path4028" inkscape:connector-curvature="0" style="fill:none;stroke:#000000;stroke-width:2;" d="M1,707.3h1022"/>
		<path id="path4030" inkscape:connector-curvature="0" style="fill:none;stroke:#000000;stroke-width:2;" d="M1,513.7h1022"/>
		<path id="path4032" inkscape:connector-curvature="0" style="fill:none;stroke:#000000;stroke-width:2;" d="M1,321h1022"/>
		
			<path id="path4034" sodipodi:nodetypes="cc" inkscape:connector-curvature="0" style="fill:none;stroke:#000000;stroke-width:2;" d="
			M319.1,1026.2V2.2"/>
		
			<path id="path4036" sodipodi:nodetypes="cc" inkscape:connector-curvature="0" style="fill:none;stroke:#000000;stroke-width:2;" d="
			M511.7,2.2v1024"/>
		
			<path id="path4038" sodipodi:nodetypes="cc" inkscape:connector-curvature="0" style="fill:none;stroke:#000000;stroke-width:2;" d="
			M706.2,1026.2V2.2"/>
		
			<path id="path4001" sodipodi:nodetypes="cc" inkscape:connector-curvature="0" style="fill:none;stroke:#000000;stroke-width:2;" d="
			M67.4,958.7L956.6,69.5"/>
		
			<path id="path4003" sodipodi:nodetypes="cc" inkscape:connector-curvature="0" style="fill:none;stroke:#000000;stroke-width:2;" d="
			M956.6,69.5v889.2"/>
		
			<path id="path4009" sodipodi:nodetypes="cc" inkscape:connector-curvature="0" style="fill:none;stroke:#000000;stroke-width:2;" d="
			M67.4,69.5h889.2"/>
		
			<path id="path4007" sodipodi:nodetypes="cc" inkscape:connector-curvature="0" style="fill:none;stroke:#000000;stroke-width:2;" d="
			M67.4,958.7V69.5"/>
		
			<path id="path4005" sodipodi:nodetypes="cc" inkscape:connector-curvature="0" style="fill:none;stroke:#000000;stroke-width:2;" d="
			M956.6,958.7H67.4"/>
		
			<path id="path3129-7" sodipodi:cy="298.86218" sodipodi:cx="462.32144" sodipodi:rx="138" sodipodi:ry="138" sodipodi:type="arc" style="fill:none;stroke:#000000;stroke-width:1.4291;" d="
			M706.2,513.9c0,106.4-86.7,192.7-193.6,192.7s-193.6-86.3-193.6-192.7s86.7-192.7,193.6-192.7S706.2,407.5,706.2,513.9z"/>
	</g>
</g>
<g id="myIcon">
	<line x1="511.6" y1="866.2" x2="511.6" y2="866.2"/>
	<path d="M786,511.5l-274.5,0.8l194.6-194.6l250.4,0.6v193.7
		c0,444.6-444.6,444.5-444.6,444.5V785.9C784.4,784.3,786,511.5,786,511.5z"/>
	<path  d="M512,67.4"/>
	<polygon points="432.7,705.4 237.1,512.1 237.1,511.1 237.1,512.1 237.1,704.4 
		67.4,704.4 67.4,67.3 237.1,67.4 237.1,237.1 407.3,67 582.2,67.5 472.1,177.6 276.6,371.1 472.1,564.6 611.9,704.4 	"/>
</g>
</svg>