<svg id="myIcon_frame" xmlns="http://www.w3.org/2000/svg" viewBox="0 0 1024 1024">
<g id="frame" inkscape:version="0.48.2 r9819" sodipodi:docname="AppIconTemplate.svg" xmlns:dc="http://purl.org/dc/elements/1.1/" xmlns:sodipodi="http://sodipodi.sourceforge.net/DTD/sodipodi-0.dtd" xmlns:svg="http://www.w3.org/2000/svg" xmlns:inkscape="http://www.inkscape.org/namespaces/inkscape" xmlns:rdf="http://www.w3.org/1999/02/22-rdf-syntax-ns#" xmlns:cc="http://creativecommons.org/ns#"><sodipodi:namedview inkscape:window-width="1920" inkscape:pageshadow="2" fit-margin-right="0" inkscape:window-x="36" inkscape:document-units="px" inkscape:window-y="0" inkscape:window-maximized="0" inkscape:guide-bbox="true" inkscape:window-height="1036" inkscape:current-layer="layer2" fit-margin-bottom="0" inkscape:pageopacity="0" inkscape:showpageshadow="false" inkscape:cx="1052.265" inkscape:cy="508.896" pagecolor="#ffffff" bordercolor="#666666" borderopacity="1" inkscape:zoom=".64" borderlayer="true" showborder="false" showgrid="false" showguides="true" fit-margin-left="0" fit-margin-top="0"><sodipodi:guide orientation="0,1" position="-10.429825,956.71547"/><sodipodi:guide orientation="1,0" position="956.5625,59.8125"/><sodipodi:guide orientation="0,1" position="1246.875,315.625"/><sodipodi:guide orientation="1,0" position="67.351921,64.523494"/><sodipodi:guide orientation="0,1" position="961.5,67.5"/><sodipodi:guide orientation="1,0" position="319.08193,67.707547"/><sodipodi:guide orientation="1,0" position="511.68014,67.707547"/><sodipodi:guide orientation="1,0" position="706.1875,64.734375"/><sodipodi:guide orientation="0,1" position="-21.213203,1024"/><sodipodi:guide orientation="0,1" position="0,0"/><sodipodi:guide orientation="1,0" position="0,1042.6289"/><sodipodi:guide orientation="0,1" position="-6.8942911,705"/><sodipodi:guide orientation="1,0" position="1024,1037.75"/><sodipodi:guide orientation="0,1" position="-27.223611,512.65241"/><inkscape:grid type="xygrid" snapvisiblegridlinesonly="true" enabled="true" visible="true" empspacing="5"/><sodipodi:guide orientation="1,0" position="511.68014,430.8932"/></sodipodi:namedview><path inkscape:connector-curvature="0" d="M352.25.022h319.6c101.4 0 152.1 0 206.7 17.3 59.6 21.7 106.5 68.6 128.2 128.2 17.3 54.6 17.3 105.3 17.3 206.7v319.6c0 101.4 0 152.1-17.3 206.7-21.7 59.6-68.6 106.5-128.2 128.2-54.6 17.3-105.3 17.3-206.7 17.3h-319.6c-101.4 0-152.1 0-206.7-17.3-59.7-21.7-106.6-68.6-128.3-128.2-17.3-54.6-17.3-105.3-17.3-206.7v-319.6c0-101.4 0-152.1 17.3-206.7 21.7-59.6 68.6-106.5 128.2-128.2 54.6-17.3 105.3-17.3 206.8-17.3" fill="none" stroke="#000" sodipodi:insensitive="true" inkscape:groupmode="layer" inkscape:label="BORDER"/><g inkscape:groupmode="layer" inkscape:label="MASK" fill="#fff"><path sodipodi:nodetypes="csssssssssssccc" inkscape:connector-curvature="0" d="M0 708.4c.1 38.8.6 71 3.5 100.2.9 8.9 2 17.5 3.4 25.9 2.7 17.1 6.3 30.6 10.6 44.6 1 3.1 2.3 6 3.5 8.9 5 11.9 10.4 22.6 16.8 32.2 7.5 11.4 16.6 23.4 26.7 33.8 11.3 11.6 22.2 20.6 34.2 28.8 7.8 5.3 15.2 9.8 23.7 13.9 3.3 1.6 6.8 3.3 10.5 4.9 6 2.6 12.6 5.2 20.4 7.4 16.3 4.6 37.8 9.5 66.7 11.8 26 2.1 58.1 3.2 99.2 3.2H0V708.4z"/><path sodipodi:nodetypes="cssssssssccc" inkscape:connector-curvature="0" d="M1024 708.4c0 33.5-.4 57.5-2.2 86.1-2.1 33.6-7.7 62-16.1 85.8-5.2 14.5-11.4 27.3-18.6 38.6-10.4 16.2-22.7 31.2-36.9 44.5-6.9 6.4-14 11.8-21.9 17.5-10.4 7.4-20.2 13.1-32.2 18.6-10.7 5-23.2 9.5-39.9 13.5-11.6 2.7-25.2 5.3-41.7 7.1-27.2 2.9-62.2 3.4-108.3 4H1024V708.4z"/><path sodipodi:nodetypes="cssssssssssccc" inkscape:connector-curvature="0" d="M1024 318.3c.2-39.1-.3-73.6-3.5-103.9-1.4-13.5-3.9-26.3-6-38.2-3.6-20.5-10.1-38.4-17.3-52.7-2.1-4.2-3.9-7.6-5.8-10.8-1.5-2.6-3.1-5.2-4.9-8.1-2-3.1-3.9-6.2-6-9.2-5.7-8-12.2-15.9-18.9-23.2-10.1-10.8-21.3-21-33.9-29.4-18-12-33.3-21.3-61.7-29.1-12.9-3.5-28.7-6.9-48.7-9.2C790.1 1.2 754.7.1 706.2 0H1024v318.3z"/><path sodipodi:nodetypes="csssssccc" inkscape:connector-curvature="0" d="M0 318.5c0-54.3 2-103.1 8.8-140 6-32.2 15.8-54.5 29.1-75.1C53.3 79.4 73 58.2 97.3 42c14.6-9.7 27.2-16.7 46.1-24 9.9-3.8 21.4-6.6 34.7-9.2 30.2-5.9 72.6-9.2 141-8.9H0v318.6z"/></g><g inkscape:groupmode="layer" inkscape:label="GUIDES" fill="none" stroke="#000"><path inkscape:connector-curvature="0" d="M1 318.795v386.3" stroke-width="2"/><path sodipodi:cy="298.862" sodipodi:cx="462.321" sodipodi:rx="138" sodipodi:ry="138" sodipodi:type="arc" d="M786 511.495c0 151.6-122.9 274.4-274.5 274.4s-274.4-122.9-274.4-274.4 122.9-274.4 274.5-274.4 274.4 122.8 274.4 274.4z" stroke-width="1.006"/><path sodipodi:cy="298.862" sodipodi:cx="462.321" sodipodi:rx="138" sodipodi:ry="138" sodipodi:type="arc" d="M956.6 511.895c0 245.5-199 444.5-444.6 444.5s-444.6-199-444.6-444.5 199.1-444.5 444.6-444.5 444.6 199 444.6 444.5z" stroke-width=".621"/><path sodipodi:nodetypes="cc" inkscape:connector-curvature="0" d="M67.4 67.295l889.2 889.2" stroke-width="2"/><path inkscape:connector-curvature="0" d="M1 705.095h1022M1 511.495h1022M1 318.795h1022" stroke-width="2"/><path sodipodi:nodetypes="cc" inkscape:connector-curvature="0" d="M319.1 1023.995v-1024M511.7-.005v1024M706.2 1023.995v-1024M67.4 956.495l889.2-889.2M956.6 67.295v889.2M67.4 67.295h889.2M67.4 956.495v-889.2M956.6 956.495H67.4" stroke-width="2"/><path sodipodi:cy="298.862" sodipodi:cx="462.321" sodipodi:rx="138" sodipodi:ry="138" sodipodi:type="arc" d="M706.2 511.695c0 106.4-86.7 192.7-193.6 192.7s-193.6-86.3-193.6-192.7 86.7-192.7 193.6-192.7 193.6 86.3 193.6 192.7z" stroke-width="1.429"/></g></g><g id="myIcon"><path d="M786 511.5l-274.5.8 194.6-194.6 250.4.6V512c0 444.6-444.6 444.5-444.6 444.5V785.9C784.4 784.3 786 511.5 786 511.5z"/><path d="M432.7 705.4L237.1 512.1v-1 193.3H67.4V67.3l169.7.1v169.7L407.3 67l174.9.5-110.1 110.1-195.5 193.5 195.5 193.5 139.8 139.8z"/></g>
</svg>